<svg width="96" height="97" viewBox="0 0 96 97" fill="none" xmlns="http://www.w3.org/2000/svg">
<rect y="0.995239" width="96" height="96" rx="48" fill="white"/>
<path d="M62.0089 13.2226C71.1401 18.8982 77.2068 29.0492 77.2068 40.5789C77.2068 57.8117 63.608 71.8953 46.5717 72.698V76.5753H54.2304C55.0148 76.5837 55.4766 77.1912 55.7143 77.6762L57.2461 83.0374C57.5139 83.9512 56.7144 85.0085 55.7622 84.9999H34.3176C33.3654 85.0084 32.5659 83.9512 32.8337 83.0374L34.3655 77.6762C34.5514 77.0418 35.1882 76.5693 35.8493 76.5753H43.5081V72.698C39.494 72.5044 35.6599 71.5698 32.1636 70.0414C31.4305 69.7156 31.0598 68.7521 31.3857 68.019C31.7115 67.2858 32.675 66.9153 33.4081 67.2411C36.9759 68.8008 40.8961 69.6824 45.0399 69.6824C61.1314 69.6824 74.1433 56.6704 74.1433 40.5789C74.1433 30.1238 68.6425 20.9661 60.3814 15.8314C59.7926 15.5054 59.472 14.7597 59.6403 14.1081C60.2202 12.9846 61.1114 12.7677 62.0089 13.2226V13.2226ZM45.0399 14.539C59.4032 14.539 71.0798 26.2156 71.0798 40.5789C71.0798 54.9422 59.4032 66.6188 45.0399 66.6188C30.6765 66.6188 19 54.9422 19 40.5789C19 29.9369 25.4175 20.7767 34.5809 16.7409C34.5909 16.7363 34.5947 16.7212 34.6046 16.717H34.6284C37.82 15.3194 41.3377 14.539 45.0399 14.539ZM45.0399 17.6025C42.0709 17.6025 39.242 18.1609 36.6391 19.1821C35.02 21.9633 35.1274 24.8012 35.0835 26.817C35.0367 28.9549 35.9647 30.1989 37.1418 32.1064C37.7777 33.1369 38.8813 34.1009 39.9898 35.0741C41.0985 36.0474 42.3726 37.0075 42.7184 38.736C43.1196 40.7423 43.4082 42.9664 44.0107 44.504C44.3122 45.2729 44.681 45.8442 45.0638 46.1794C45.4467 46.5145 45.8316 46.7074 46.5717 46.7059C47.1241 46.7052 47.4233 46.5513 47.8162 46.2033C48.2091 45.8553 48.6391 45.2637 49.0369 44.4801C50.0056 42.5708 50.1499 40.9828 50.1617 39.2386C50.1732 37.4944 49.9926 35.5792 50.4249 33.3748C50.8912 30.9985 52.3323 29.4929 53.3688 28.3248C54.4054 27.1568 54.9963 26.4517 54.9963 25.2613C54.9963 22.0887 54.2268 20.2088 52.5791 18.871C50.2162 18.052 47.6846 17.6025 45.0399 17.6025ZM32.5465 21.2883C26.2342 25.3795 22.0635 32.4821 22.0635 40.5789C22.0635 43.7105 22.6807 46.6923 23.8106 49.4105C25.7025 48.5483 28.0595 48.3791 30.4164 48.2377C30.4485 48.2369 30.4799 48.2369 30.5121 48.2377C34.3873 48.2377 37.2814 49.5181 38.4342 51.8996C39.5785 54.2636 38.5816 57.125 36.2084 59.2712C36.19 59.2896 36.1785 59.3011 36.1601 59.3187C35.48 59.9898 34.8506 60.4918 34.2694 60.8743C37.4801 62.5776 41.1456 63.5549 45.0396 63.5549C57.7472 63.5549 68.016 53.2862 68.016 40.5785C68.016 32.5054 63.8621 25.4326 57.5809 21.3358C57.906 22.5356 58.0595 23.8527 58.0595 25.2609C58.0595 27.5717 56.7387 29.1501 55.6662 30.3588C54.5936 31.5675 53.7276 32.5081 53.4404 33.9728C53.1084 35.6641 53.238 37.3197 53.2249 39.2622C53.2119 41.2047 52.9955 43.4431 51.7649 45.8679C51.2743 46.8349 50.6916 47.7554 49.8502 48.5006C49.0091 49.2458 47.8519 49.7665 46.5713 49.7691C45.1862 49.7691 43.9304 49.2656 43.0292 48.4767C42.1279 47.6877 41.5744 46.6797 41.1623 45.6285C40.3383 43.5261 40.067 41.1571 39.7023 39.334C39.6518 39.0807 39.0454 38.3074 37.9791 37.3714C36.9129 36.4355 35.5472 35.3147 34.5566 33.7095C33.4609 31.9338 31.9513 29.8573 32.0196 26.7448C32.0457 25.56 31.9898 23.5457 32.5462 21.2879L32.5465 21.2883ZM30.5121 51.3012C28.4169 51.4345 26.3843 51.7941 25.2228 52.2107C26.7712 54.8474 28.8186 57.1581 31.2541 58.984V58.9602C31.2541 58.9602 31.2709 58.9771 31.7566 58.7688C32.2421 58.5606 33.0339 58.1105 34.0543 57.0934C34.0696 57.0773 34.0857 57.0612 34.1025 57.0459C35.8833 55.4572 36.0918 54.1363 35.6582 53.2405C35.2245 52.3446 33.7114 51.3018 30.5124 51.3018L30.5121 51.3012ZM53.0577 79.6388H37.0221L36.3519 81.9364H53.7279L53.0577 79.6388Z" fill="#CF9F46"/>
</svg>
